<svg width="162" height="75" viewBox="0 0 162 75" fill="none" xmlns="http://www.w3.org/2000/svg">
<g clip-path="url(#clip0_38_146)">
<path d="M111.09 59.2499C117.67 56.7399 123.84 54.0199 129.51 51.2599V14.3899C129.51 6.31985 120.84 1.84985 112.65 1.84985C104.46 1.84985 97.6098 6.91985 92.5298 14.1699C92.4498 9.90985 89.9298 6.68985 86.3698 4.59985C81.7998 5.56985 77.1398 6.69985 72.4298 7.99985C66.8498 9.54985 61.4698 11.2599 56.3298 13.0999C56.0498 13.4699 55.7798 13.8399 55.5098 14.2199V13.3899C48.9398 15.7799 42.7698 18.3699 37.0998 21.1199V58.2199C37.0998 60.5899 37.0198 62.5999 33.7598 63.1199V72.7199H51.7498C54.0598 72.5499 56.4298 72.3199 58.8498 72.0399V63.1199C55.5898 62.5999 55.5098 60.5899 55.5098 58.2199V22.4999C56.7398 17.8099 60.2898 14.1799 65.5698 14.1799C69.9598 14.1799 74.1298 17.4099 74.1298 23.4699V58.2199C74.1298 60.5899 74.0598 62.5999 71.1998 63.1199V70.2099C78.2398 68.9499 85.5598 67.2899 93.0198 65.2199C93.8398 64.9899 94.6498 64.7399 95.4598 64.5099V63.1199C92.6098 62.5999 92.5298 60.5899 92.5298 58.2199V22.3999C93.6998 17.6599 97.2898 14.1899 102.53 14.1899C106.92 14.1899 111.09 17.4199 111.09 23.4799V58.2199C111.09 58.5699 111.09 58.9099 111.07 59.2399L111.09 59.2499Z" fill="#0A51B5"/>
<path d="M129.51 58.2198V56.5898C123.06 60.7398 115.76 64.3998 107.76 68.0198V72.7198H132.85V63.1198C129.59 62.5998 129.51 60.5898 129.51 58.2198Z" fill="#0A51B5"/>
<path d="M55.5098 3.90989V1.38989H33.7598V13.5099C40.3398 10.0099 47.6498 6.76989 55.5098 3.90989Z" fill="#0A51B5"/>
<path d="M129.51 51.17C118.89 56.32 106.52 61.02 93.0301 64.76C48.3001 77.17 8.50006 74.5 4.15006 58.81C-0.19994 43.11 32.5301 20.33 77.2701 7.92C95.0301 2.99 112.01 0.46 126.3 0.16V0.0700002C111.09 -0.44 92.3001 1.92 72.5601 7.39C28.1501 19.71 -4.13994 43.07 0.43006 59.57C5.01006 76.07 44.7201 79.47 89.1301 67.15C104.35 62.93 118.13 57.41 129.51 51.31V51.16V51.17Z" fill="#3099FF"/>
<path d="M160.61 14.9399C158.87 9.89992 154.33 6.13992 147.72 3.66992V3.78992C153.06 6.35992 156.77 9.91992 158.33 14.4599C163.74 30.1799 141.92 52.4099 107.76 67.9499V68.0999C143.02 52.7899 165.95 30.4499 160.61 14.9299V14.9399Z" fill="#3099FF"/>
</g>
<defs>
<clipPath id="clip0_38_146">
<rect width="161.38" height="74.56" fill="white"/>
</clipPath>
</defs>
</svg>
