<svg width="462" height="76" viewBox="0 0 462 76" fill="none" xmlns="http://www.w3.org/2000/svg">
<g clip-path="url(#clip0_38_153)">
<path d="M178.63 72.58V53.61C175.8 56.69 172.55 59.71 168.89 62.69C167.18 59.52 165.35 56.32 163.4 53.1C169.99 48.75 174.85 43.99 177.98 38.82H168.46V30.76H181.72C182.21 29.15 182.65 27.34 183.04 25.34H163.7V16.99H184.21C184.36 15.28 184.5 13.47 184.65 11.57H170.07V3.52002H228.66V17H236.13V25.35H228.66V38.83H188.82C188.04 40.54 187.11 42.25 186.04 43.96H229.25V72.3H219.36V69H188.45V72.59H178.64L178.63 72.58ZM219.35 52.15H188.44V60.79H219.35V52.15ZM191.81 30.76H218.54V25.34H193.05C192.71 27.29 192.29 29.1 191.8 30.76H191.81ZM194.3 16.99H218.54V11.57H194.81C194.66 13.47 194.49 15.28 194.3 16.99Z" fill="#0A51B5"/>
<path d="M297.43 28.71H252.53V72.21H242.57V20.21H269.89V14.79H239.27V6.3H269.89V0H280.58V6.3H310.24V14.79H280.58V20.21H307.39V60.13C307.39 67.45 303.95 71.34 297.06 71.77C293.84 72.01 290.08 72.06 285.78 71.92C285.29 68.65 284.58 65.35 283.66 62.03C286.44 62.32 289.4 62.47 292.52 62.47C295.64 62.47 297.43 60.93 297.43 57.86V28.71ZM282.12 28.86L290.84 31.79C289.72 33.3 288.55 34.84 287.32 36.4H293.99V44.16H279.63V49.58H295.16V57.34H279.63V70.6H269.96V57.34H254.43V49.58H269.96V44.16H255.68V36.4H262.2C261.17 34.74 260.17 33.13 259.2 31.57L267.62 28.93C269.23 31.47 270.77 33.96 272.23 36.4H277.36C279.07 33.96 280.66 31.44 282.12 28.86Z" fill="#0A51B5"/>
<path d="M380.27 3.52002V12.08C375.05 17.33 369 21.88 362.14 25.74C369.22 27.6 377.24 28.78 386.2 29.29C384.49 32.85 383.1 36.1 382.03 39.03C369.63 37.71 358.87 35.22 349.77 31.56C340.27 35.27 329.57 37.93 317.65 39.54C316.62 36.46 315.28 33.36 313.62 30.24C322.82 29.17 331.01 27.65 338.19 25.7C332.36 22.06 327.5 17.72 323.62 12.66H317.87V3.52002H380.27ZM313.91 59.48H344.53V52.08H320.58V42.78H344.53V36.04H355.08V42.78H379.4V52.08H355.08V59.48H385.84V69H313.92V59.48H313.91ZM350.31 21.61C356.32 19.07 361.27 16.09 365.18 12.67H336.36C340.27 16.21 344.92 19.19 350.31 21.61Z" fill="#0A51B5"/>
<path d="M424.43 60.79C435.81 61.03 448.06 60.89 461.2 60.35C459.93 63.72 458.73 67.09 457.61 70.46C443.89 70.51 431.17 70.39 419.45 70.09C411.93 69.7 406.02 67.16 401.73 62.47C399.83 64.52 396.85 67.79 392.79 72.28L388.4 61.44C389.86 59.88 392.62 57.29 396.68 53.68V35.3H389.36V25.63H406.5V54.49C410.75 58.54 416.73 60.64 424.44 60.79H424.43ZM398.36 0.72998C402.02 5.46998 405.37 10.03 408.39 14.43L399.6 20.36C397.4 16.4 394.35 11.5 390.44 5.63998L398.35 0.72998H398.36ZM409.27 15.67H426.77C427.01 11.42 427.14 6.43998 427.14 0.72998H437.32C437.32 6.29998 437.22 11.28 437.03 15.67H458.86V24.68H436.37C436.17 26.58 435.93 28.32 435.64 29.88C443.94 36.62 451.51 42.94 458.35 48.85L450.81 57.42C444.8 51.56 438.63 45.99 432.28 40.72C429.5 45.99 424.17 51.9 416.31 58.44C413.67 55.27 411.11 52.51 408.62 50.16C417.46 43.42 422.63 37.51 424.15 32.44C424.88 30.73 425.49 28.14 425.98 24.68H409.28V15.67H409.27Z" fill="#0A51B5"/>
<path d="M111.09 60.4899C117.67 57.9799 123.84 55.2599 129.51 52.4999V15.6399C129.51 7.56985 120.84 3.09985 112.65 3.09985C104.46 3.09985 97.6103 8.16985 92.5303 15.4199C92.4503 11.1599 89.9303 7.93985 86.3703 5.84985C81.8003 6.81985 77.1403 7.94985 72.4303 9.24985C66.8503 10.7999 61.4703 12.5099 56.3303 14.3499C56.0503 14.7199 55.7803 15.0899 55.5103 15.4699V14.6399C48.9403 17.0299 42.7703 19.6199 37.1003 22.3699V59.4699C37.1003 61.8399 37.0203 63.8499 33.7603 64.3699V73.9699H51.7503C54.0603 73.7999 56.4303 73.5699 58.8503 73.2899V64.3699C55.5903 63.8499 55.5103 61.8399 55.5103 59.4699V23.7499C56.7403 19.0599 60.2903 15.4299 65.5703 15.4299C69.9603 15.4299 74.1303 18.6599 74.1303 24.7199V59.4699C74.1303 61.8399 74.0603 63.8499 71.2003 64.3699V71.4599C78.2403 70.1999 85.5603 68.5399 93.0203 66.4699C93.8403 66.2399 94.6503 65.9899 95.4603 65.7599V64.3699C92.6103 63.8499 92.5303 61.8399 92.5303 59.4699V23.6399C93.7003 18.8999 97.2903 15.4299 102.53 15.4299C106.92 15.4299 111.09 18.6599 111.09 24.7199V59.4699C111.09 59.8199 111.09 60.1599 111.07 60.4899H111.09Z" fill="#0A51B5"/>
<path d="M129.51 59.4698V57.8398C123.06 61.9898 115.76 65.6498 107.76 69.2698V73.9698H132.85V64.3698C129.59 63.8498 129.51 61.8398 129.51 59.4698Z" fill="#0A51B5"/>
<path d="M55.5103 5.15989V2.63989H33.7603V14.7599C40.3403 11.2599 47.6503 8.01989 55.5103 5.15989Z" fill="#0A51B5"/>
<path d="M129.51 52.41C118.89 57.56 106.52 62.26 93.0301 66C48.3001 78.41 8.50006 75.74 4.15006 60.05C-0.19994 44.36 32.5301 21.58 77.2701 9.17C95.0301 4.24 112.01 1.71 126.3 1.41V1.32C111.09 0.81 92.3001 3.17 72.5601 8.64C28.1501 20.95 -4.13994 44.32 0.43006 60.82C5.01006 77.32 44.7201 80.72 89.1301 68.4C104.35 64.18 118.13 58.66 129.51 52.56V52.41Z" fill="#3099FF"/>
<path d="M160.61 16.1799C158.87 11.1399 154.33 7.37991 147.72 4.90991V5.02991C153.06 7.59991 156.77 11.1599 158.33 15.6999C163.74 31.4199 141.92 53.6499 107.76 69.1899V69.3399C143.02 54.0299 165.95 31.6899 160.61 16.1699V16.1799Z" fill="#3099FF"/>
</g>
<defs>
<clipPath id="clip0_38_153">
<rect width="461.2" height="75.81" fill="white"/>
</clipPath>
</defs>
</svg>
